<svg xmlns:osb="http://www.openswatchbook.org/uri/2009/osb" xmlns="http://www.w3.org/2000/svg" width="64" height="64"><defs><linearGradient osb:paint="solid"><stop offset="0"/></linearGradient><filter id="b" color-interpolation-filters="sRGB"><feGaussianBlur stdDeviation="5" result="result8"/><feComposite in2="result8" result="result6" in="SourceGraphic" operator="in"/><feComposite in2="result6" operator="in" result="result11"/><feFlood result="result10" flood-opacity="1" flood-color="#fff"/><feBlend in2="result11" mode="multiply" in="result10" result="result12"/><feComposite in2="SourceGraphic" result="fbSourceGraphic" operator="in" in="result12"/><feFlood result="result6" flood-color="#4b659a"/><feComposite in2="result6" k3=".3" k2=".3" k1=".5" operator="arithmetic" result="result2" in="fbSourceGraphic"/><feColorMatrix result="fbSourceGraphicAlpha" in="result2" values="1 0 0 -1 0 1 0 1 -1 0 1 0 0 -1 0 -0.8 -1 0 3.9 -2.7"/><feGaussianBlur result="result0" in="fbSourceGraphicAlpha" stdDeviation=".5"/><feDiffuseLighting lighting-color="#fff" diffuseConstant=".7" surfaceScale="50" result="result13" in="result0"><feDistantLight elevation="20" azimuth="225"/></feDiffuseLighting><feSpecularLighting specularExponent="20" specularConstant=".7" surfaceScale="10" lighting-color="#fff" result="result1" in="result0"><feDistantLight elevation="45" azimuth="225"/></feSpecularLighting><feBlend in2="SourceGraphic" mode="screen" result="result5" in="result13"/><feComposite in2="result5" in="result1" k3="1" k2="1" operator="arithmetic" result="result9"/><feComposite in2="SourceGraphic" operator="in" result="fbSourceGraphic"/><feColorMatrix result="fbSourceGraphicAlpha" in="fbSourceGraphic" values="0 0 0 -1 0 0 0 0 -1 0 0 0 0 -1 0 0 0 0 1 0"/><feColorMatrix values="1 0 0 0 0 0 1 0 0 0 0 0 1 0 0 0 0 0 1 0" result="result7" in="fbSourceGraphic"/><feGaussianBlur result="result6" stdDeviation="1.5"/><feComposite in2="result7" operator="atop" in="result6" result="result91"/><feComposite in2="result91" operator="in"/></filter><filter id="a" color-interpolation-filters="sRGB"><feGaussianBlur stdDeviation="5" result="result8"/><feComposite in2="result8" result="result6" in="SourceGraphic" operator="in"/><feComposite in2="result6" operator="in" result="result11"/><feFlood result="result10" flood-opacity="1" flood-color="#fff"/><feBlend in2="result11" mode="multiply" in="result10" result="result12"/><feComposite in2="SourceGraphic" result="fbSourceGraphic" operator="in" in="result12"/><feFlood result="result6" flood-color="#4b659a"/><feComposite in2="result6" k3=".3" k2=".3" k1=".5" operator="arithmetic" result="result2" in="fbSourceGraphic"/><feColorMatrix result="fbSourceGraphicAlpha" in="result2" values="1 0 0 -1 0 1 0 1 -1 0 1 0 0 -1 0 -0.8 -1 0 3.9 -2.7"/><feGaussianBlur result="result0" in="fbSourceGraphicAlpha" stdDeviation=".5"/><feDiffuseLighting lighting-color="#fff" diffuseConstant=".7" surfaceScale="50" result="result13" in="result0"><feDistantLight elevation="20" azimuth="225"/></feDiffuseLighting><feSpecularLighting specularExponent="20" specularConstant=".7" surfaceScale="10" lighting-color="#fff" result="result1" in="result0"><feDistantLight elevation="45" azimuth="225"/></feSpecularLighting><feBlend in2="SourceGraphic" mode="screen" result="result5" in="result13"/><feComposite in2="result5" in="result1" k3="1" k2="1" operator="arithmetic" result="result9"/><feComposite in2="SourceGraphic" operator="in" result="fbSourceGraphic"/><feColorMatrix result="fbSourceGraphicAlpha" in="fbSourceGraphic" values="0 0 0 -1 0 0 0 0 -1 0 0 0 0 -1 0 0 0 0 1 0"/><feColorMatrix values="1 0 0 0 0 0 1 0 0 0 0 0 1 0 0 0 0 0 1 0" result="result7" in="fbSourceGraphic"/><feGaussianBlur result="result6" stdDeviation=".6"/><feComposite in2="result7" operator="atop" in="result6" result="result91"/><feComposite in2="result91" operator="in"/></filter></defs><g><path d="M15.19 56.456c0 4.136-3.352 7.488-7.488 7.488-4.136 0-7.488-3.352-7.488-7.488 0-4.136 3.352-7.488 7.488-7.488 4.13 0 7.481 3.345 7.488 7.475" fill="#f8f77e" filter="url(#a)"/><path style="text-indent:0;text-align:start;line-height:normal;text-transform:none;block-progression:tb;-inkscape-font-specification:Sans" d="M5.969 1020.906a6.112 6.112 0 1 0-.344 12.219c7.908.632 10.305 3.618 11.938 6.719.816 1.55 1.262 3.211 1.5 4.5.119.644.204 1.184.25 1.625l.063.656.063.438c.034.224-.136.288.469 1.656a6.103 6.103 0 0 0 11.563-3.719l-.031-.313c-.064-.609-.148-1.498-.344-2.563-.392-2.128-1.142-4.975-2.719-7.969-3.153-5.987-10.309-12.302-21.781-13.219a6.103 6.103 0 0 0-.625-.031z" color="#000" fill="#f8f77e" overflow="visible" enable-background="accumulate" font-family="Sans" filter="url(#b)" transform="translate(0 -988.362)"/><path style="text-indent:0;text-align:start;line-height:normal;text-transform:none;block-progression:tb;-inkscape-font-specification:Sans" d="M5.781 1004.656a6.103 6.103 0 0 0 .031 12.188c5.683.269 12.802 1.82 18.438 6.031 5.636 4.211 10.326 10.954 11.438 23.906a6.103 6.103 0 1 0 12.156-1.031c-1.348-15.711-7.986-26.435-16.313-32.656-8.327-6.222-17.799-8.091-25.125-8.438a6.103 6.103 0 0 0-.625 0z" color="#000" fill="#999" overflow="visible" enable-background="accumulate" font-family="Sans" filter="url(#b)" transform="translate(0 -988.362)"/><path style="text-indent:0;text-align:start;line-height:normal;text-transform:none;block-progression:tb;-inkscape-font-specification:Sans" d="M5.969 988.375a6.103 6.103 0 0 0-.344 12.188c13.195 1.039 23.963 4.667 31.75 11.656 7.787 6.99 13.145 17.607 14.594 34.562a6.103 6.103 0 1 0 12.156-1.031c-1.636-19.142-8.208-33.303-18.594-42.625-10.386-9.322-24.044-13.546-38.938-14.719a6.103 6.103 0 0 0-.625-.031z" color="#000" fill="#999" overflow="visible" enable-background="accumulate" font-family="Sans" filter="url(#b)" transform="translate(0 -988.362)"/></g></svg>