<svg xmlns="http://www.w3.org/2000/svg" width="424.188" height="165.563"><g transform="translate(-167.719 -379.656)" stroke="#000"><path d="M200 383.656c-15.669 0-28.281 12.612-28.281 28.281v101c0 15.669 12.612 28.281 28.281 28.281h323.25c15.669 0 28.544-12.614 28.281-28.281-.339-20.244-.074-16.531 20.219-16.531 8.949 0 16.156-7.207 16.156-16.156v-38c0-8.949-7.21-15.923-16.156-16.156-19.776-.515-20.976 3.784-20.219-14.156 0-15.669-12.612-28.281-28.281-28.281z" stroke-width="8" fill="none"/><rect width="342.749" height="119.496" x="189.89" y="402.252" ry="15.666" fill="d72822" stroke-width="7.586"/></g></svg>