<?xml version="1.0" encoding="UTF-8" standalone="no"?>
<svg
   xmlns:dc="http://purl.org/dc/elements/1.1/"
   xmlns:cc="http://creativecommons.org/ns#"
   xmlns:rdf="http://www.w3.org/1999/02/22-rdf-syntax-ns#"
   xmlns:svg="http://www.w3.org/2000/svg"
   xmlns="http://www.w3.org/2000/svg"
   xmlns:sodipodi="http://sodipodi.sourceforge.net/DTD/sodipodi-0.dtd"
   xmlns:inkscape="http://www.inkscape.org/namespaces/inkscape"
   version="1.1"
   id="Your_Icon"
   x="0px"
   y="0px"
   width="67.462593"
   height="117.75889"
   viewBox="0 0 67.462593 117.75889"
   enable-background="new 0 0 100 100"
   xml:space="preserve"
   inkscape:version="0.48.4 r9939"
   sodipodi:docname="afdc.svg"><metadata
     id="metadata3369"><rdf:RDF><cc:Work
         rdf:about=""><dc:format>image/svg+xml</dc:format><dc:type
           rdf:resource="http://purl.org/dc/dcmitype/StillImage" /><dc:title /></cc:Work></rdf:RDF></metadata><defs
     id="defs3367" /><sodipodi:namedview
     pagecolor="#ffffff"
     bordercolor="#666666"
     borderopacity="1"
     objecttolerance="10"
     gridtolerance="10"
     guidetolerance="10"
     inkscape:pageopacity="0"
     inkscape:pageshadow="2"
     inkscape:window-width="1308"
     inkscape:window-height="829"
     id="namedview3365"
     showgrid="false"
     showguides="true"
     inkscape:guide-bbox="true"
     inkscape:zoom="2.36"
     inkscape:cx="-63.152028"
     inkscape:cy="53.403398"
     inkscape:window-x="72"
     inkscape:window-y="31"
     inkscape:window-maximized="0"
     inkscape:current-layer="layer1"
     fit-margin-top="0"
     fit-margin-left="0"
     fit-margin-right="0"
     fit-margin-bottom="0" /><g
     inkscape:groupmode="layer"
     id="layer1"
     inkscape:label="flame"
     transform="translate(506.67679,12.062259)"><g
       transform="matrix(1.1837209,0,0,1.1837209,-532.13124,-12.368843)"
       id="Your_Icon-0"><path
         style="fill-rule:evenodd"
         inkscape:connector-curvature="0"
         clip-rule="evenodd"
         d="m 38.421,96.791 c 0,0 -11.167,-4.3 -15.529,-17.614 -4.17,-12.726 1.593,-26.808 10.116,-32.308 0,0 -6.384,8.824 -1.614,14.678 2.437,2.99 7.456,2.728 10.047,0.28 3.451,-3.26 3.973,-6.978 3.643,-11.696 -0.634,-9.062 -8.895,-13.393 -3.817,-24.875 0,0 0.856,5.681 6.422,5.221 2.911,-0.239 7.081,-4.278 2.174,-11.511 -4.908,-7.234 -4.131,-13.408 0.784,-18.707 0,0 -3.669,8.369 3.941,14.14 7.175,5.44 8.517,13.301 5.641,19.436 -2.539,5.415 -6.561,11.969 -3.203,17.258 3.359,5.291 12.486,3.17 12.218,-4.709 -0.183,-5.378 -2.974,-7.614 -2.974,-7.614 0,0 6.229,2.927 8.365,10.11 1.436,4.83 -0.508,12.171 -3.479,16.973 -2.228,3.603 -4.866,5.755 -5.128,9.011 -0.323,4.026 2.768,6.723 6.278,6.327 5.729,-0.646 5.369,-8.053 5.369,-8.053 0,0 4.025,9.012 -5.752,18.214 -9.902,9.321 -24.084,10.472 -33.502,5.439 z"
         id="path3555" /></g></g><path
     id="Ice"
     d="m 11.890202,136.43553 c -0.43684,-0.62236 -0.56144,-1.70475 -0.27567,-2.412 l 2.37934,-5.88908 c 0.28345,-0.70156 -0.10235,-1.19387 -0.85076,-1.09958 l -3.05814,0.39145 c -0.7505498,0.0941 -1.7539598,-0.31125 -2.2193998,-0.9064 l -0.14436,-0.17511 c -0.47107,-0.59946 -0.61799,-1.66295 -0.33359,-2.36643 l 0.16967,-0.41993 c 0.28267,-0.69967 1.12966,-1.3616 1.88226,-1.46079 l 5.8723198,-0.78085 c 0.75289,-0.10712 1.5996,-0.76111 1.88381,-1.46457 l 1.20829,-2.99064 c 0.28576,-0.70725 -0.0921,-1.1684 -0.83682,-1.02858 l -3.68854,0.7009 c -0.74375,0.13729 -1.1217,-0.31805 -0.83723,-1.02214 l 1.34402,-3.32658 c 0.28447,-0.70409 -0.0994,-1.19043 -0.84955,-1.0844 l -3.25185,0.45278 c -0.7521098,0.10527 -1.6002398,0.7682 -1.8839498,1.4704 l -2.1885,5.41674 c -0.28421,0.70346 -1.1299,1.38574 -1.87602,1.5162 l -0.59932,0.10164 c -0.74903,0.12855 -1.71119,-0.27709 -2.14432,-0.89947 l -0.0801,-0.12347 c -0.42622,-0.6232 -0.54777995,-1.7095 -0.262,-2.41675 l 1.12487,-2.78415 c 0.28319,-0.70094 -0.10085,-1.19398 -0.8514,-1.09984 l -6.31348,0.82371 c -0.74777,0.0945 -1.80396,-0.26021 -2.3415,-0.79691 l -0.65818,-0.65083 c -0.53615,-0.53101 -0.74345,-1.55058 -0.46281,-2.2452 l 0.3309,-0.81901 c 0.28345,-0.70156 1.13078,-1.34792 1.88674,-1.43548 l 6.69897005,-0.78328 c 0.75633995,-0.0867 0.96156995,-0.62738 0.46130995,-1.19971 l -2.03309995,-2.31109 c -0.50355005,-0.56999 -0.67750005,-1.61207 -0.39307005,-2.31616 l 0.21227,-0.52538 c 0.28421005,-0.703456 1.13495005,-1.349173 1.88750005,-1.437368 l 0.61086995,-0.07566 c 0.75381,-0.08769 1.74819,0.33096 2.20873,0.936439 l 3.60634,4.698619 c 0.46383,0.60095 1.45787,1.00771 2.20874,0.90188 l 3.2069498,-0.44889 c 0.75299,-0.10565 1.34781,-0.22158 1.32822,-0.26035 -0.0204,-0.0406 -0.42479,-0.55946 -0.89509,-1.15348 l -2.07657,-2.64892 c -0.47007,-0.59465 -0.24272,-1.188152 0.50305,-1.317999 l 3.26451,-0.562235 c 0.74701,-0.134513 0.98041,-0.728485 0.51044,-1.325303 l -1.97776,-2.548026 c -0.46956,-0.592247 -1.46678,-0.989276 -2.21297,-0.882363 l -5.8537998,0.871331 c -0.75199,0.110432 -1.77674,-0.267572 -2.28204,-0.833133 l -0.24895,-0.282007 c -0.50214,-0.567952 -0.68206,-1.604372 -0.39637,-2.311611 l 0.2087,-0.516543 c 0.28422,-0.703456 1.13106,-1.355889 1.88567,-1.452804 l 3.02336,-0.390814 c 0.75323,-0.09527 0.97181,-0.656296 0.49102,-1.242802 l -4.09524,-4.96666 c -0.48388,-0.580404 -0.64579,-1.63599 -0.36182,-2.338818 l 0.32851,-0.813074 c 0.28319,-0.70093 1.1326,-1.332489 1.89055,-1.406752 l 0.72896,-0.06614 c 0.75819,-0.07123 1.75833,0.365906 2.22624,0.956751 l 3.9626898,5.074705 c 0.46726,0.597931 1.08094,0.51165 1.36439,-0.189935 l 1.16287,-2.878209 c 0.28421,-0.703456 1.12427,-1.406375 1.86391,-1.564433 l 0.13663,-0.0293 c 0.74133,-0.160322 1.73044,0.200385 2.19897,0.802498 l 0.39247,0.499404 c 0.46638,0.598302 0.61507,1.66471 0.32643,2.36579 l -2.26215,5.566213 c -0.286,0.707875 -0.13638,1.766582 0.33571,2.367177 l 2.10811,2.669004 c 0.4651,0.597795 1.08336,0.507491 1.36443,-0.197212 l 1.2786,-3.192146 c 0.28338,-0.706731 0.90881,-0.802216 1.39586,-0.220531 l 2.31049,2.777213 c 0.48321,0.587479 1.11452,0.488497 1.39873,-0.214959 l 1.20958,-2.993796 c 0.28345,-0.701562 0.13132,-1.768618 -0.33712,-2.3628 l -3.67987,-4.651197 c -0.47258,-0.59567 -0.62053,-1.656638 -0.33747,-2.358146 l 0.15767,-0.390249 c 0.28601,-0.707878 1.13161,-1.371824 1.88056,-1.478373 l 0.23574,-0.03256 c 0.75298,-0.10936 1.75706,0.289003 2.22836,0.884162 l 1.92528,2.407088 c 0.47257,0.595672 1.09539,0.501326 1.37909,-0.200886 l 2.37398,-5.875814 c 0.28396,-0.702827 1.12172,-1.400065 1.86805,-1.55101 l 0.71126,-0.138668 c 0.74186,-0.145403 1.70867,0.237865 2.14495,0.861549 l 0.42409,0.612071 c 0.43809,0.6192 0.56207,1.705003 0.27811,2.407829 l -2.37322,5.873925 c -0.28345,0.701563 0.10195,1.203968 0.85146,1.112352 l 3.24739,-0.401669 c 0.75256,-0.08819 1.72096,0.345665 2.15283,0.971159 l 0.23529,0.348489 c 0.43039,0.621956 0.55003,1.71115 0.26584,2.414604 l -0.0385,0.09535 c -0.28345,0.701562 -1.13512,1.365996 -1.88657,1.464193 l -6.16813,0.814848 c -0.7502,0.09867 -1.59616,0.758101 -1.87961,1.459662 l -1.20957,2.993796 c -0.28422,0.703458 0.0964,1.172325 0.84294,1.051613 l 3.45208,-0.566511 c 0.74484,-0.123635 1.12767,0.346902 0.84346,1.050351 l -1.40781,3.484451 c -0.28574,0.70724 0.10431,1.20714 0.85433,1.12526 l 3.48239,-0.40516 c 0.75634,-0.0867 1.60339,-0.72873 1.88939,-1.436607 l 2.48089,-6.140407 c 0.28599,-0.707876 1.13518,-1.307943 1.89567,-1.350329 l 0.16644,-0.01209 c 0.75604,-0.03684 1.80695,0.37821 2.33547,0.924558 l 0.2005,0.203673 c 0.52789,0.546033 0.73102,1.563182 0.44477,2.271691 l -1.21212,3.000109 c -0.28525,0.705984 0.0971,1.215979 0.85253,1.129683 l 6.51389,-0.728781 c 0.75291,-0.08365 1.73825,0.34825 2.19588,0.95184 l 0.35397,0.48017 c 0.45194,0.60863 0.59189,1.68032 0.30585,2.38821 l -0.23625,0.58474 c -0.28421,0.70345 -1.13196,1.35993 -1.88037,1.46155 l -6.39303,0.85694 c -0.75372,0.10017 -0.97881,0.67183 -0.50934,1.26331 l 1.86463,2.31722 c 0.47649,0.59504 0.63356,1.65529 0.34959,2.35811 l -0.18063,0.44708 c -0.28421,0.70346 -1.13395,1.35399 -1.88713,1.44193 l -0.20811,0.0298 c -0.74901,0.0867 -1.74315,-0.32892 -2.2061,-0.93025 l -3.74425,-4.89904 c -0.46258,-0.60044 -1.45114,-0.98075 -2.19704,-0.84724 l -3.47689,0.64609 c -0.7436,0.13148 -0.98856,0.74871 -0.54456,1.35853 l 1.9417,2.66641 c 0.44482,0.61531 0.1969,1.20343 -0.55506,1.30654 l -3.3155,0.4557 c -0.74908,0.10871 -0.96563,0.66467 -0.47472,1.24571 l 2.21028,2.60157 c 0.49276,0.57665 1.51087,0.9711 2.26433,0.87887 l 5.99393,-0.75815 c 0.75079,-0.0911 1.70624,0.35294 2.1152,0.98975 l 0.14302,0.21866 c 0.40869,0.64477 0.5105,1.73998 0.22883,2.43713 l -0.12679,0.31383 c -0.28601,0.70788 -1.13221,1.36057 -1.88797,1.45849 l -2.746,0.35156 c -0.75133,0.096 -0.99224,0.67596 -0.52881,1.27601 l 3.7336,4.90723 c 0.45953,0.60436 0.60293,1.67303 0.31949,2.37459 l -0.30794,0.76218 c -0.28423,0.70346 -1.13457,1.30453 -1.89351,1.34313 l -0.81246,0.0382 c -0.76072,0.032 -1.76215,-0.42915 -2.23549,-1.0266 l -3.67117,-4.63813 c -0.47257,-0.59567 -1.08805,-0.50497 -1.37278,0.1997 l -1.09272,2.70458 c -0.28421,0.70345 -1.13284,1.36031 -1.8888,1.45153 l -0.34177,0.0478 c -0.75155,0.093 -1.7524,-0.31871 -2.21972,-0.90923 l -0.18221,-0.23448 c -0.47231,-0.59997 -0.6214,-1.65993 -0.33712,-2.3628 l 2.19522,-5.43336 c 0.28422,-0.70346 0.13233,-1.76381 -0.34123,-2.36336 l -2.27459,-2.8751 c -0.4669,-0.59337 -1.08591,-0.50483 -1.36962,0.19734 l -1.21058,2.99632 c -0.28423,0.70346 -0.88775,0.77915 -1.33813,0.16673 l -2.08768,-2.80324 c -0.44976,-0.61217 -1.05242,-0.53319 -1.33791,0.17343 l -1.2083,2.99063 c -0.28422,0.70346 -0.13194,1.76103 0.3359,2.36135 l 3.68117,4.6407 c 0.47158,0.59454 0.62446,1.6597 0.34178,2.35936 l -0.23804,0.58917 c -0.28446,0.70408 -1.13994,1.32878 -1.89276,1.38675 l -0.15428,0.0126 c -0.75435,0.0618 -1.76116,-0.37881 -2.23479,-0.96828 l -1.90002,-2.38954 c -0.47197,-0.59176 -1.08996,-0.50574 -1.37366,0.19648 l -2.37934,5.88909 c -0.28574,0.70724 -1.12943,1.39914 -1.87647,1.53732 l -0.72082,0.13332 c -0.74732,0.14613 -1.7098,-0.24788 -2.14637,-0.8672 l -0.40634,-0.58506 z"
     inkscape:connector-curvature="0"
     style="fill:#ffffff" /></svg>