<svg xmlns="http://www.w3.org/2000/svg" xmlns:xlink="http://www.w3.org/1999/xlink" version="1.1" x="0px" y="0px" viewBox="0 0 100 100" enable-background="new 0 0 100 100" xml:space="preserve"><path d="M46.491,96.003c-0.021,0-0.041-0.001-0.062-0.002c-2.077-0.126-4.098-0.271-6.006-0.432c-0.55-0.046-0.959-0.529-0.913-1.08  c0.046-0.55,0.514-0.969,1.081-0.912c1.892,0.159,3.897,0.303,5.959,0.428c0.551,0.033,0.971,0.507,0.938,1.059  C47.456,95.594,47.015,96.003,46.491,96.003z M34.54,94.982c-0.039,0-0.077-0.002-0.116-0.007c-2.115-0.243-4.128-0.516-5.985-0.81  c-0.545-0.086-0.918-0.598-0.832-1.144c0.087-0.545,0.607-0.921,1.144-0.831c1.829,0.289,3.814,0.558,5.901,0.798  c0.549,0.063,0.942,0.559,0.879,1.107C35.473,94.606,35.041,94.982,34.54,94.982z M22.705,93.07c-0.072,0-0.146-0.008-0.22-0.024  c-2.208-0.494-4.187-1.045-5.883-1.637c-0.521-0.182-0.797-0.752-0.615-1.273c0.182-0.522,0.753-0.798,1.273-0.615  c1.625,0.566,3.529,1.096,5.663,1.574c0.539,0.12,0.878,0.655,0.757,1.194C23.575,92.754,23.162,93.07,22.705,93.07z M11.567,88.842  c-0.206,0-0.414-0.063-0.593-0.195c-1.871-1.381-2.82-2.94-2.82-4.633c0-0.523,0.095-1.056,0.281-1.581  c0.186-0.52,0.755-0.791,1.277-0.607c0.521,0.186,0.792,0.757,0.607,1.277c-0.11,0.31-0.166,0.616-0.166,0.911  c0,1.023,0.675,2.04,2.007,3.023c0.444,0.328,0.539,0.954,0.211,1.398C12.176,88.701,11.874,88.842,11.567,88.842z M13.445,79.499  c-0.333,0-0.658-0.165-0.848-0.468c-0.294-0.468-0.153-1.085,0.314-1.379c1.572-0.988,3.517-1.902,5.624-2.645  c0.52-0.182,1.091,0.09,1.275,0.611c0.183,0.521-0.09,1.092-0.611,1.275c-1.97,0.693-3.776,1.541-5.224,2.451  C13.811,79.449,13.626,79.499,13.445,79.499z M24.671,75.439c-0.478,0-0.9-0.343-0.984-0.83c-0.094-0.544,0.271-1.062,0.815-1.155  c2.17-0.376,4.255-0.533,6.181-0.464c0.552,0.019,0.984,0.481,0.965,1.033c-0.019,0.551-0.465,1.012-1.034,0.965  c-1.79-0.056-3.736,0.085-5.771,0.437C24.785,75.435,24.728,75.439,24.671,75.439z M36.645,75c-0.542,0-0.987-0.389-0.999-0.932  c-0.013-0.553,0.424-0.989,0.977-1.002c2.076-0.048,4.051-0.181,5.871-0.419c0.543-0.072,1.049,0.318,1.122,0.866  c0.072,0.548-0.314,1.009-0.862,1.08C40.863,74.842,38.816,75,36.668,75C36.661,75,36.653,75,36.645,75z M48.487,73.433  c-0.431,0-0.828-0.28-0.958-0.714c-0.158-0.529,0.143-1.086,0.672-1.244c1.987-0.594,3.755-1.357,5.254-2.269  c0.473-0.286,1.087-0.136,1.374,0.335c0.287,0.472,0.137,1.087-0.335,1.374c-1.646,1-3.57,1.833-5.721,2.476  C48.678,73.419,48.582,73.433,48.487,73.433z M58.407,67.087c-0.205,0-0.412-0.063-0.591-0.193  c-0.445-0.327-0.541-0.953-0.215-1.398c1.09-1.485,1.822-3.186,2.176-5.054c0.103-0.543,0.627-0.896,1.168-0.797  c0.543,0.103,0.899,0.626,0.797,1.168c-0.409,2.165-1.26,4.138-2.527,5.866C59.019,66.945,58.715,67.087,58.407,67.087z   M60.761,55.657c-0.479,0-0.903-0.346-0.985-0.835c-0.306-1.827-0.881-3.663-1.709-5.458c-0.231-0.501-0.012-1.096,0.489-1.327  c0.504-0.232,1.096-0.011,1.327,0.489c0.902,1.956,1.529,3.963,1.865,5.966c0.091,0.545-0.276,1.06-0.821,1.151  C60.871,55.653,60.815,55.657,60.761,55.657z M20.653,52.858c-1.315,0-2.53-0.209-3.612-0.622c-0.516-0.197-0.775-0.775-0.578-1.291  c0.196-0.517,0.776-0.776,1.291-0.578c1.463,0.559,3.265,0.636,5.376,0.242c0.545-0.105,1.065,0.256,1.167,0.799  c0.102,0.543-0.256,1.065-0.799,1.167C22.497,52.763,21.541,52.857,20.653,52.858z M85.976,52.5c-0.084,0-0.169-0.011-0.254-0.032  c-0.534-0.141-0.854-0.687-0.715-1.221c0.301-1.149,0.577-2.258,0.832-3.331c0.127-0.538,0.667-0.87,1.203-0.743  c0.537,0.127,0.87,0.667,0.742,1.204c-0.257,1.087-0.537,2.212-0.842,3.375C86.824,52.203,86.419,52.5,85.976,52.5z M29.03,50.792  c-0.392,0-0.764-0.232-0.924-0.617c-0.211-0.51,0.03-1.095,0.541-1.307c1.543-0.641,3.246-1.443,5.357-2.527  c0.491-0.254,1.094-0.058,1.346,0.433c0.252,0.491,0.058,1.094-0.433,1.346c-2.161,1.109-3.91,1.933-5.504,2.595  C29.287,50.767,29.157,50.792,29.03,50.792z M13.08,48.319c-0.338,0-0.668-0.171-0.856-0.482c-1.059-1.748-1.905-3.668-2.515-5.707  c-0.158-0.529,0.142-1.086,0.671-1.245c0.528-0.157,1.086,0.142,1.245,0.671c0.562,1.876,1.339,3.641,2.31,5.244  c0.286,0.473,0.135,1.087-0.337,1.374C13.435,48.272,13.256,48.319,13.08,48.319z M39.775,45.432c-0.359,0-0.707-0.194-0.886-0.534  c-0.257-0.489-0.069-1.094,0.419-1.351c1.792-0.943,3.695-1.919,5.472-2.672c0.509-0.215,1.095,0.022,1.311,0.531  c0.215,0.508-0.022,1.095-0.531,1.311c-1.708,0.724-3.567,1.677-5.321,2.6C40.091,45.395,39.932,45.432,39.775,45.432z   M55.789,44.879c-0.283,0-0.564-0.12-0.762-0.353c-1.476-1.736-3.015-2.841-4.222-3.031c-0.545-0.086-0.918-0.598-0.833-1.143  c0.085-0.546,0.598-0.919,1.144-0.833c1.697,0.267,3.628,1.585,5.435,3.711c0.358,0.421,0.307,1.052-0.114,1.41  C56.248,44.801,56.019,44.879,55.789,44.879z M88.053,43.277c-0.06,0-0.119-0.005-0.18-0.016c-0.544-0.099-0.904-0.619-0.805-1.163  c0.381-2.098,0.663-4.068,0.84-5.856c0.055-0.549,0.538-0.955,1.093-0.897c0.55,0.054,0.952,0.543,0.897,1.093  c-0.182,1.842-0.472,3.866-0.863,6.018C88.948,42.939,88.527,43.277,88.053,43.277z M9.596,36.952c-0.519,0-0.957-0.4-0.996-0.925  c-0.06-0.793-0.09-1.61-0.09-2.427c0-1.229,0.068-2.49,0.203-3.745c0.059-0.55,0.556-0.943,1.101-0.888  c0.549,0.059,0.947,0.552,0.888,1.101c-0.127,1.185-0.191,2.374-0.191,3.532c0,0.768,0.028,1.534,0.084,2.278  c0.042,0.551-0.372,1.031-0.922,1.072C9.646,36.951,9.621,36.952,9.596,36.952z M89.101,31c-0.53,0-0.973-0.242-0.998-0.777  c-0.104-2.184-0.449-3.966-1.024-5.472c-0.197-0.516,0.061-1.05,0.576-1.248c0.517-0.196,1.093,0.082,1.291,0.599  c0.652,1.704,1.041,3.62,1.155,6.015C90.127,30.668,89.701,31,89.149,31C89.133,31,89.117,31,89.101,31z M10.83,25.07  c-0.087,0-0.176-0.012-0.265-0.036c-0.533-0.146-0.846-0.696-0.7-1.229c0.543-1.983,1.243-3.931,2.079-5.79  c0.227-0.504,0.818-0.727,1.322-0.502c0.504,0.227,0.729,0.819,0.502,1.322c-0.794,1.765-1.458,3.614-1.974,5.498  C11.672,24.778,11.27,25.07,10.83,25.07z M58.094,21.591c-0.71,0-1.388-0.031-2.015-0.093c-0.497-0.049-0.982-0.113-1.456-0.191  c-0.545-0.09-0.914-0.605-0.823-1.15c0.09-0.545,0.595-0.911,1.149-0.824c0.431,0.071,0.873,0.129,1.326,0.174  c1.251,0.123,2.686,0.111,4.403-0.041c0.542-0.042,1.036,0.358,1.084,0.908c0.049,0.55-0.357,1.036-0.908,1.084  C59.849,21.547,58.945,21.591,58.094,21.591z M84.353,20.879c-0.178,0-0.356-0.047-0.52-0.146c-1.359-0.828-3.08-1.281-5.26-1.384  c-0.552-0.026-0.979-0.495-0.952-1.046c0.026-0.552,0.524-0.973,1.046-0.952c2.524,0.12,4.555,0.667,6.207,1.674  c0.472,0.288,0.621,0.903,0.333,1.375C85.02,20.709,84.689,20.879,84.353,20.879z M66.709,20.64c-0.48,0-0.903-0.346-0.985-0.835  c-0.091-0.544,0.277-1.06,0.821-1.151l1.026-0.172c1.626-0.274,3.309-0.558,4.936-0.772c0.562-0.072,1.05,0.313,1.122,0.86  c0.072,0.548-0.313,1.05-0.86,1.122c-1.592,0.21-3.256,0.49-4.865,0.762l-1.028,0.173C66.819,20.635,66.764,20.64,66.709,20.64z   M49.108,19.477c-0.151,0-0.304-0.034-0.448-0.106c-1.757-0.884-3.439-2.036-5.142-3.521c-0.416-0.363-0.459-0.995-0.096-1.411  c0.364-0.416,0.995-0.459,1.411-0.096c1.574,1.374,3.12,2.434,4.725,3.241c0.494,0.249,0.692,0.85,0.444,1.343  C49.827,19.275,49.474,19.477,49.108,19.477z M15.759,14.181c-0.192,0-0.387-0.055-0.558-0.171c-0.458-0.309-0.579-0.931-0.27-1.388  c1.222-1.811,2.563-3.413,3.986-4.76c0.401-0.379,1.034-0.362,1.414,0.039c0.38,0.401,0.362,1.034-0.039,1.414  c-1.317,1.248-2.563,2.737-3.703,4.426C16.396,14.026,16.08,14.181,15.759,14.181z M39.941,11.848c-0.271,0-0.54-0.109-0.737-0.323  l-0.337-0.368c-1.308-1.425-2.543-2.771-3.783-3.811c-0.423-0.355-0.479-0.986-0.124-1.409c0.355-0.423,0.987-0.479,1.409-0.124  c1.339,1.124,2.618,2.517,3.971,3.991l0.336,0.366c0.374,0.407,0.347,1.039-0.06,1.413C40.425,11.76,40.183,11.848,39.941,11.848z   M24.519,6.197c-0.381,0-0.746-0.22-0.913-0.59c-0.227-0.504-0.002-1.096,0.502-1.322c1.726-0.776,3.474-1.169,5.197-1.169  c0.346,0.028,0.766,0.02,1.149,0.059c0.55,0.056,0.949,0.547,0.893,1.096s-0.545,0.898-1.096,0.836C29.936,5.073,29.622,5,29.308,5  c-0.001,0-0.002,0-0.003,0c-1.438,0-2.91,0.392-4.376,1.051C24.795,6.11,24.656,6.197,24.519,6.197z M58.49,97.003  c-0.02,0-0.041-0.001-0.061-0.002c-2.078-0.126-4.098-0.271-6.006-0.432c-0.551-0.046-0.959-0.529-0.913-1.08  c0.046-0.55,0.514-0.969,1.081-0.912c1.892,0.159,3.896,0.303,5.959,0.428c0.551,0.033,0.971,0.507,0.938,1.059  C59.455,96.594,59.016,97.003,58.49,97.003z"></path><path d="M85.981,68.676c-0.744,0-1.459-0.417-1.804-1.133l-2.387-4.962l-4.961,2.388c-0.992,0.478-2.189,0.061-2.67-0.936  c-0.479-0.995-0.06-2.19,0.936-2.67l4.961-2.387l-2.387-4.96c-0.479-0.995-0.06-2.19,0.936-2.67c0.994-0.474,2.19-0.06,2.67,0.936  l2.386,4.961l4.962-2.388c0.995-0.475,2.191-0.06,2.67,0.936s0.06,2.19-0.936,2.67l-4.962,2.387l2.388,4.961  c0.479,0.995,0.06,2.19-0.936,2.67C86.568,68.612,86.272,68.676,85.981,68.676z"></path></svg>