<?xml version="1.0" standalone="no"?>
<!DOCTYPE svg PUBLIC "-//W3C//DTD SVG 20010904//EN"
 "http://www.w3.org/TR/2001/REC-SVG-20010904/DTD/svg10.dtd">
<svg version="1.0" xmlns="http://www.w3.org/2000/svg"
 width="128.000000pt" height="128.000000pt" viewBox="0 0 128.000000 128.000000"
 preserveAspectRatio="xMidYMid meet">
<metadata>
Created by potrace 1.11, written by Peter Selinger 2001-2013
</metadata>
<g transform="translate(0.000000,128.000000) scale(0.100000,-0.100000)"
fill="#000000" stroke="none">
<path d="M221 1263 c-68 -23 -118 -59 -155 -111 -110 -150 -77 -343 76 -457
21 -15 36 -31 33 -35 -3 -5 0 -10 7 -12 18 -6 -3 -35 -57 -76 -32 -24 -61 -59
-84 -102 -33 -60 -36 -71 -36 -150 0 -70 5 -94 25 -134 55 -109 156 -177 271
-182 113 -5 184 27 275 123 27 29 56 53 63 53 7 0 41 -28 75 -62 75 -75 132
-106 214 -114 138 -15 260 57 321 186 21 45 26 69 25 135 0 99 -26 156 -108
237 -72 72 -72 88 0 156 79 75 109 143 108 247 0 96 -23 152 -89 218 -134 137
-349 124 -482 -27 -47 -54 -80 -50 -146 17 -29 29 -75 63 -102 76 -63 30 -171
36 -234 14z m226 -59 c138 -66 195 -231 128 -369 -15 -30 -30 -55 -34 -55 -12
0 -121 108 -121 119 0 7 -4 10 -9 7 -4 -3 -19 6 -31 19 l-24 25 26 28 c33 35
85 114 97 145 8 20 7 25 -6 23 -25 -4 -112 -97 -124 -133 -12 -38 -16 -39 -47
-17 -28 19 -38 13 -23 -15 8 -15 8 -22 -1 -28 -7 -4 -29 -26 -47 -48 -19 -22
-39 -39 -44 -37 -5 1 -6 -2 -2 -8 3 -5 -2 -23 -12 -40 -12 -21 -14 -33 -7 -40
14 -14 98 69 126 124 l20 39 94 -99 c51 -54 93 -102 94 -106 0 -3 -25 -18 -56
-33 -185 -88 -396 45 -396 250 0 208 210 340 399 249z m643 -10 c52 -28 115
-98 104 -115 -3 -5 -1 -9 4 -9 15 0 32 -58 32 -111 0 -77 -33 -151 -91 -203
-86 -77 -206 -93 -308 -42 l-54 28 40 41 c22 23 65 69 95 101 l56 60 20 -40
c11 -21 42 -61 68 -88 44 -45 49 -47 61 -30 7 10 9 20 5 23 -4 3 -26 31 -47
61 -22 30 -51 65 -65 76 -21 19 -23 24 -11 38 20 23 6 31 -21 12 -31 -22 -32
-21 -51 22 -24 53 -106 137 -121 122 -13 -13 18 -72 77 -144 l41 -48 -89 -84
-90 -83 -19 30 c-67 106 -52 250 35 337 61 62 118 83 210 78 50 -2 79 -10 119
-32z m-640 -616 c25 -13 45 -28 45 -34 0 -6 -40 -54 -89 -107 -70 -75 -92 -94
-103 -86 -7 7 -13 19 -13 28 0 9 -25 42 -56 75 -41 43 -59 55 -67 47 -15 -15
12 -64 75 -136 42 -46 48 -58 38 -70 -20 -24 -5 -29 25 -9 23 15 28 15 36 3 8
-14 13 -36 10 -52 -1 -5 3 -6 9 -2 5 3 10 2 10 -3 0 -4 21 -29 47 -55 32 -32
50 -44 57 -37 11 11 -24 85 -57 121 -10 10 -15 19 -12 19 3 0 -7 11 -22 25
l-28 24 89 86 c49 47 92 85 97 85 14 0 38 -42 53 -93 54 -180 -81 -359 -271
-359 -181 0 -317 178 -267 348 23 76 53 118 127 174 57 43 188 47 267 8z m624
2 c102 -49 161 -142 160 -255 0 -168 -131 -290 -300 -280 -209 13 -329 251
-218 431 l19 32 94 -88 93 -88 -44 -54 c-57 -71 -85 -125 -72 -138 14 -14 98
69 120 120 20 45 22 46 50 25 30 -23 51 -19 29 5 -17 19 -17 21 14 52 36 37
101 131 101 147 0 25 -21 17 -65 -27 -26 -26 -53 -61 -61 -79 -8 -17 -18 -34
-22 -37 -10 -6 -187 181 -187 197 0 12 45 39 90 54 48 16 149 8 199 -17z"/>
</g>
</svg>
